<svg width="430" height="69.58" viewBox="0 0 418.34 68.58" xmlns="http://www.w3.org/2000/svg"><g id="svgGroup" stroke-linecap="round" fill-rule="evenodd" font-size="9pt" stroke-width="2.25mm" fill="none" style="stroke:#f97316;stroke-width:1.15mm;fill:none"><path d="M 10.08 49 L 0 49 L 0 0 L 10.08 0 L 10.08 18.97 L 29.96 18.97 L 29.96 0 L 40.04 0 L 40.04 49 L 29.96 49 L 29.96 28.595 L 10.08 28.595 L 10.08 49 Z M 343.245 49 L 333.62 49 L 333.62 13.23 L 343.245 13.23 L 343.245 26.355 L 359.065 26.355 L 359.065 13.23 L 368.655 13.23 L 368.655 49 L 359.065 49 L 359.065 34.825 L 343.245 34.825 L 343.245 49 Z M 96.04 56.77 L 86.485 60.97 L 86.485 40.53 L 90.265 40.53 Q 91.525 39.83 92.12 38.5 Q 92.715 37.17 92.96 35.175 L 95.41 13.23 L 124.775 13.23 L 124.775 40.53 L 129.255 40.53 L 129.255 56.77 L 119.665 60.97 L 119.665 49 L 96.04 49 L 96.04 56.77 Z M 299.285 49 L 289.66 49 L 289.66 13.23 L 322.91 13.23 L 322.91 49 L 313.285 49 L 313.285 21.7 L 299.285 21.7 L 299.285 49 Z M 263.515 62.58 L 253.54 62.58 L 258.93 48.475 L 245.49 13.23 L 255.43 13.23 L 262.885 33.005 Q 263.126 33.607 263.392 34.363 A 49.701 49.701 0 0 1 263.48 34.615 A 21.8 21.8 0 0 1 263.863 35.833 A 18.577 18.577 0 0 1 264.005 36.365 A 19.731 19.731 0 0 1 264.343 35.177 A 23.134 23.134 0 0 1 264.53 34.615 A 44.949 44.949 0 0 1 264.799 33.859 Q 264.968 33.399 265.125 33.005 L 272.51 13.23 L 282.45 13.23 L 263.515 62.58 Z M 206.675 23.17 L 197.505 26.25 Q 196.665 24.01 195.108 22.803 Q 193.55 21.595 191.52 21.595 A 5.768 5.768 0 0 0 187.092 23.534 A 7.728 7.728 0 0 0 186.533 24.22 A 9.395 9.395 0 0 0 185.073 27.374 Q 184.625 29.065 184.625 31.15 A 16.004 16.004 0 0 0 184.863 33.997 Q 185.29 36.355 186.48 38.028 A 6.669 6.669 0 0 0 188.034 39.616 A 5.562 5.562 0 0 0 191.345 40.635 A 6.365 6.365 0 0 0 193.359 40.327 A 5.489 5.489 0 0 0 195.16 39.323 A 6.843 6.843 0 0 0 196.607 37.618 Q 197.068 36.865 197.419 35.931 A 12.491 12.491 0 0 0 197.575 35.49 L 206.71 38.15 A 20.719 20.719 0 0 1 205.101 42.197 Q 203.543 45.114 201.145 46.918 A 14.202 14.202 0 0 1 195.375 49.454 A 20.046 20.046 0 0 1 191.345 49.84 A 18.993 18.993 0 0 1 186.908 49.344 A 14.751 14.751 0 0 1 182.578 47.565 A 14.815 14.815 0 0 1 177.265 41.861 A 17.944 17.944 0 0 1 176.873 41.09 Q 174.86 36.89 174.86 31.15 A 27.438 27.438 0 0 1 175.249 26.419 A 19.901 19.901 0 0 1 176.89 21.192 A 15.91 15.91 0 0 1 180.072 16.684 A 14.599 14.599 0 0 1 182.63 14.682 A 15.247 15.247 0 0 1 188.505 12.592 A 19.823 19.823 0 0 1 191.38 12.39 A 20.604 20.604 0 0 1 195.721 12.823 Q 198.747 13.475 201.057 15.107 A 13.032 13.032 0 0 1 201.075 15.12 A 14.089 14.089 0 0 1 205.3 19.958 A 19.251 19.251 0 0 1 206.675 23.17 Z M 81.515 34.44 L 58.45 34.44 A 9.376 9.376 0 0 0 58.704 36.376 A 7.149 7.149 0 0 0 59.447 38.255 Q 60.375 39.865 62.02 40.758 A 7.237 7.237 0 0 0 64.277 41.519 A 9.72 9.72 0 0 0 65.905 41.65 Q 68.565 41.65 70.42 40.793 Q 72.275 39.935 73.99 37.975 L 79.52 43.61 Q 77.105 46.445 73.728 48.143 A 15.697 15.697 0 0 1 69.075 49.601 A 20.715 20.715 0 0 1 65.87 49.84 Q 60.655 49.84 56.875 47.565 A 14.883 14.883 0 0 1 51.194 41.351 A 17.861 17.861 0 0 1 51.065 41.09 A 19.561 19.561 0 0 1 49.481 36.173 Q 49.035 33.803 49.035 31.08 A 26.927 26.927 0 0 1 49.43 26.352 A 19.515 19.515 0 0 1 51.1 21.14 A 15.664 15.664 0 0 1 54.649 16.365 A 14.797 14.797 0 0 1 56.945 14.665 A 15.745 15.745 0 0 1 62.751 12.618 A 20.648 20.648 0 0 1 65.87 12.39 A 18.566 18.566 0 0 1 70.975 13.072 A 16.29 16.29 0 0 1 73.92 14.228 A 13.449 13.449 0 0 1 79.372 19.365 A 16.307 16.307 0 0 1 79.642 19.828 A 15.411 15.411 0 0 1 81.197 23.936 Q 81.619 25.762 81.725 27.883 A 29.119 29.119 0 0 1 81.76 29.33 A 68.475 68.475 0 0 1 81.755 30.122 Q 81.747 30.828 81.725 31.693 Q 81.69 33.075 81.515 34.44 Z M 231.7 49 L 222.075 49 L 222.075 21.7 L 211.715 21.7 L 211.715 13.23 L 242.095 13.23 L 242.095 21.7 L 231.7 21.7 L 231.7 49 Z M 146.21 49.139 A 18.79 18.79 0 0 0 151.48 49.84 A 19.89 19.89 0 0 0 154.569 49.608 A 15.107 15.107 0 0 0 160.195 47.583 A 14.046 14.046 0 0 0 162.828 45.499 A 15.381 15.381 0 0 0 165.83 41.125 A 17.716 17.716 0 0 0 165.965 40.828 Q 167.79 36.722 167.79 31.15 A 33.243 33.243 0 0 0 167.79 30.987 Q 167.777 28.462 167.38 26.24 A 19.908 19.908 0 0 0 165.795 21.175 A 18.091 18.091 0 0 0 165.406 20.404 A 14.887 14.887 0 0 0 160.143 14.682 A 14.479 14.479 0 0 0 155.876 12.894 A 18.381 18.381 0 0 0 151.48 12.39 A 19.681 19.681 0 0 0 148.462 12.614 A 15.093 15.093 0 0 0 142.747 14.683 A 14.499 14.499 0 0 0 140.119 16.767 A 15.89 15.89 0 0 0 137.042 21.192 A 20.026 20.026 0 0 0 135.415 26.419 A 27.671 27.671 0 0 0 135.03 31.15 Q 135.03 39.865 139.44 44.853 A 14.134 14.134 0 0 0 146.21 49.139 Z M 388.76 49.139 A 18.79 18.79 0 0 0 394.03 49.84 A 19.89 19.89 0 0 0 397.119 49.608 A 15.107 15.107 0 0 0 402.745 47.583 A 14.046 14.046 0 0 0 405.378 45.499 A 15.381 15.381 0 0 0 408.38 41.125 A 17.716 17.716 0 0 0 408.515 40.828 Q 410.34 36.722 410.34 31.15 A 33.243 33.243 0 0 0 410.34 30.987 Q 410.327 28.462 409.93 26.24 A 19.908 19.908 0 0 0 408.345 21.175 A 18.091 18.091 0 0 0 407.956 20.404 A 14.887 14.887 0 0 0 402.693 14.682 A 14.479 14.479 0 0 0 398.426 12.894 A 18.381 18.381 0 0 0 394.03 12.39 A 19.681 19.681 0 0 0 391.012 12.614 A 15.093 15.093 0 0 0 385.297 14.683 A 14.499 14.499 0 0 0 382.669 16.767 A 15.89 15.89 0 0 0 379.592 21.192 A 20.026 20.026 0 0 0 377.965 26.419 A 27.671 27.671 0 0 0 377.58 31.15 Q 377.58 39.865 381.99 44.853 A 14.134 14.134 0 0 0 388.76 49.139 Z M 100.835 40.53 L 115.22 40.53 L 115.22 21.7 L 103.81 21.7 L 102.13 36.085 A 13.533 13.533 0 0 1 101.906 37.509 A 10.882 10.882 0 0 1 101.64 38.518 A 14.954 14.954 0 0 1 101.161 39.82 A 12.337 12.337 0 0 1 100.835 40.53 Z M 151.48 40.6 Q 154.7 40.6 156.468 38.115 Q 158.235 35.63 158.235 31.15 Q 158.235 28.114 157.42 25.988 A 8.145 8.145 0 0 0 156.433 24.132 A 5.958 5.958 0 0 0 154.375 22.298 Q 153.226 21.693 151.782 21.636 A 7.691 7.691 0 0 0 151.48 21.63 A 6.388 6.388 0 0 0 149.046 22.077 Q 147.531 22.696 146.475 24.168 A 8.829 8.829 0 0 0 145.199 26.859 Q 144.655 28.719 144.655 31.15 A 17.315 17.315 0 0 0 144.851 33.841 Q 145.077 35.273 145.562 36.435 A 8.187 8.187 0 0 0 146.475 38.08 A 5.993 5.993 0 0 0 148.597 39.95 Q 149.744 40.539 151.18 40.594 A 7.812 7.812 0 0 0 151.48 40.6 Z M 394.03 40.6 Q 397.25 40.6 399.018 38.115 Q 400.785 35.63 400.785 31.15 Q 400.785 28.114 399.97 25.988 A 8.145 8.145 0 0 0 398.983 24.132 A 5.958 5.958 0 0 0 396.925 22.298 Q 395.776 21.693 394.332 21.636 A 7.691 7.691 0 0 0 394.03 21.63 A 6.388 6.388 0 0 0 391.596 22.077 Q 390.081 22.696 389.025 24.168 A 8.829 8.829 0 0 0 387.749 26.859 Q 387.205 28.719 387.205 31.15 A 17.315 17.315 0 0 0 387.401 33.841 Q 387.627 35.273 388.112 36.435 A 8.187 8.187 0 0 0 389.025 38.08 A 5.993 5.993 0 0 0 391.147 39.95 Q 392.294 40.539 393.73 40.594 A 7.812 7.812 0 0 0 394.03 40.6 Z M 58.555 27.09 L 72.52 27.09 A 10.607 10.607 0 0 0 72.2 25.341 A 7.724 7.724 0 0 0 71.47 23.555 Q 70.63 22.085 69.178 21.333 A 6.431 6.431 0 0 0 67.461 20.745 Q 66.706 20.596 65.84 20.581 A 11.115 11.115 0 0 0 65.66 20.58 A 7.914 7.914 0 0 0 63.217 20.943 A 6.664 6.664 0 0 0 60.883 22.26 A 6.459 6.459 0 0 0 59.033 25.016 A 9.512 9.512 0 0 0 58.555 27.09 Z" vector-effect="non-scaling-stroke"/></g></svg>